<?xml version="1.0" encoding="UTF-8"?>
<svg id="Ebene_1" data-name="Ebene 1" xmlns="http://www.w3.org/2000/svg" xmlns:xlink="http://www.w3.org/1999/xlink" viewBox="0 0 1200.93 297.12">
  <defs>
    <style>
      .cls-1 {
        fill: url(#Unbenannter_Verlauf_50-12);
      }

      .cls-2 {
        fill: url(#Unbenannter_Verlauf_50-11);
      }

      .cls-3 {
        fill: url(#Unbenannter_Verlauf_50-24);
      }

      .cls-4 {
        fill: url(#Unbenannter_Verlauf_50-3);
      }

      .cls-5 {
        fill: url(#Unbenannter_Verlauf_50-7);
      }

      .cls-6 {
        fill: url(#Unbenannter_Verlauf_50);
      }

      .cls-7 {
        fill: url(#Unbenannter_Verlauf_50-29);
      }

      .cls-8 {
        fill: url(#Unbenannter_Verlauf_50-20);
      }

      .cls-9 {
        fill: url(#Unbenannter_Verlauf_50-22);
      }

      .cls-10 {
        fill: url(#Unbenannter_Verlauf_50-27);
      }

      .cls-11 {
        fill: url(#Unbenannter_Verlauf_50-9);
      }

      .cls-12 {
        fill: url(#Unbenannter_Verlauf_50-6);
      }

      .cls-13 {
        fill: url(#Unbenannter_Verlauf_50-30);
      }

      .cls-14 {
        fill: url(#Unbenannter_Verlauf_50-2);
      }

      .cls-15 {
        fill: url(#Unbenannter_Verlauf_50-17);
      }

      .cls-16 {
        fill: url(#Unbenannter_Verlauf_50-5);
      }

      .cls-17 {
        fill: url(#Unbenannter_Verlauf_50-16);
      }

      .cls-18 {
        fill: url(#Unbenannter_Verlauf_50-8);
      }

      .cls-19 {
        fill: url(#Unbenannter_Verlauf_50-18);
      }

      .cls-20 {
        fill: url(#Unbenannter_Verlauf_50-14);
      }

      .cls-21 {
        fill: url(#Unbenannter_Verlauf_50-26);
      }

      .cls-22 {
        fill: url(#Unbenannter_Verlauf_50-19);
      }

      .cls-23 {
        fill: url(#Unbenannter_Verlauf_50-28);
      }

      .cls-24 {
        fill: url(#Unbenannter_Verlauf_50-33);
      }

      .cls-25 {
        fill: url(#Unbenannter_Verlauf_50-31);
      }

      .cls-26 {
        fill: url(#Unbenannter_Verlauf_50-23);
      }

      .cls-27 {
        fill: url(#Unbenannter_Verlauf_50-4);
      }

      .cls-28 {
        fill: url(#Unbenannter_Verlauf_50-32);
      }

      .cls-29 {
        fill: url(#Unbenannter_Verlauf_50-21);
      }

      .cls-30 {
        fill: url(#Unbenannter_Verlauf_50-10);
      }

      .cls-31 {
        fill: url(#Unbenannter_Verlauf_50-15);
      }

      .cls-32 {
        fill: url(#Unbenannter_Verlauf_50-13);
      }

      .cls-33 {
        fill: url(#Unbenannter_Verlauf_50-25);
      }
    </style>
    <linearGradient id="Unbenannter_Verlauf_50" data-name="Unbenannter Verlauf 50" x1=".45" y1="34.88" x2="1200.93" y2="34.88" gradientTransform="translate(0 112.73) scale(1 -1)" gradientUnits="userSpaceOnUse">
      <stop offset="0" stop-color="#1d1d1b"/>
      <stop offset=".03" stop-color="#3a3a39"/>
      <stop offset=".07" stop-color="#636362"/>
      <stop offset=".12" stop-color="#888887"/>
      <stop offset=".18" stop-color="#a9a9a8"/>
      <stop offset=".24" stop-color="#c4c4c3"/>
      <stop offset=".3" stop-color="#d9d9d9"/>
      <stop offset=".38" stop-color="#eaeaea"/>
      <stop offset=".48" stop-color="#f6f6f6"/>
      <stop offset=".62" stop-color="#fdfdfd"/>
      <stop offset="1" stop-color="#fff"/>
    </linearGradient>
    <linearGradient id="Unbenannter_Verlauf_50-2" data-name="Unbenannter Verlauf 50" x1=".43" y1="25.69" x2="1200.84" y2="25.69" xlink:href="#Unbenannter_Verlauf_50"/>
    <linearGradient id="Unbenannter_Verlauf_50-3" data-name="Unbenannter Verlauf 50" x1=".41" y1="16.69" x2="1200.75" y2="16.69" xlink:href="#Unbenannter_Verlauf_50"/>
    <linearGradient id="Unbenannter_Verlauf_50-4" data-name="Unbenannter Verlauf 50" x1=".39" y1="7.87" x2="1200.66" y2="7.87" xlink:href="#Unbenannter_Verlauf_50"/>
    <linearGradient id="Unbenannter_Verlauf_50-5" data-name="Unbenannter Verlauf 50" x1=".36" y1="2.48" x2="1200.57" y2="2.48" xlink:href="#Unbenannter_Verlauf_50"/>
    <linearGradient id="Unbenannter_Verlauf_50-6" data-name="Unbenannter Verlauf 50" x1=".34" y1="-1.16" x2="1200.48" y2="-1.16" xlink:href="#Unbenannter_Verlauf_50"/>
    <linearGradient id="Unbenannter_Verlauf_50-7" data-name="Unbenannter Verlauf 50" x1=".31" y1="-4.41" x2="1200.39" y2="-4.41" xlink:href="#Unbenannter_Verlauf_50"/>
    <linearGradient id="Unbenannter_Verlauf_50-8" data-name="Unbenannter Verlauf 50" x1=".28" y1="-7.59" x2="1200.31" y2="-7.59" xlink:href="#Unbenannter_Verlauf_50"/>
    <linearGradient id="Unbenannter_Verlauf_50-9" data-name="Unbenannter Verlauf 50" x1=".25" y1="-10.74" x2="1200.22" y2="-10.74" xlink:href="#Unbenannter_Verlauf_50"/>
    <linearGradient id="Unbenannter_Verlauf_50-10" data-name="Unbenannter Verlauf 50" x1=".22" y1="-13.88" x2="1200.13" y2="-13.88" xlink:href="#Unbenannter_Verlauf_50"/>
    <linearGradient id="Unbenannter_Verlauf_50-11" data-name="Unbenannter Verlauf 50" x1=".19" y1="-17.04" x2="1200.04" y2="-17.04" xlink:href="#Unbenannter_Verlauf_50"/>
    <linearGradient id="Unbenannter_Verlauf_50-12" data-name="Unbenannter Verlauf 50" x1=".15" y1="-20.17" x2="1199.95" y2="-20.17" xlink:href="#Unbenannter_Verlauf_50"/>
    <linearGradient id="Unbenannter_Verlauf_50-13" data-name="Unbenannter Verlauf 50" x1=".12" y1="-23.28" x2="1199.86" y2="-23.28" xlink:href="#Unbenannter_Verlauf_50"/>
    <linearGradient id="Unbenannter_Verlauf_50-14" data-name="Unbenannter Verlauf 50" x1=".09" y1="-26.39" x2="1199.77" y2="-26.39" xlink:href="#Unbenannter_Verlauf_50"/>
    <linearGradient id="Unbenannter_Verlauf_50-15" data-name="Unbenannter Verlauf 50" x1=".06" y1="-29.54" x2="1199.68" y2="-29.54" xlink:href="#Unbenannter_Verlauf_50"/>
    <linearGradient id="Unbenannter_Verlauf_50-16" data-name="Unbenannter Verlauf 50" x1=".03" y1="-32.7" x2="1199.59" y2="-32.7" xlink:href="#Unbenannter_Verlauf_50"/>
    <linearGradient id="Unbenannter_Verlauf_50-17" data-name="Unbenannter Verlauf 50" x1="0" y1="-35.83" x2="1199.5" y2="-35.83" xlink:href="#Unbenannter_Verlauf_50"/>
    <linearGradient id="Unbenannter_Verlauf_50-18" data-name="Unbenannter Verlauf 50" x1=".03" y1="-41.18" x2="1199.5" y2="-41.18" xlink:href="#Unbenannter_Verlauf_50"/>
    <linearGradient id="Unbenannter_Verlauf_50-19" data-name="Unbenannter Verlauf 50" x1=".06" y1="-46.54" x2="1199.51" y2="-46.54" xlink:href="#Unbenannter_Verlauf_50"/>
    <linearGradient id="Unbenannter_Verlauf_50-20" data-name="Unbenannter Verlauf 50" x1=".1" y1="-51.9" x2="1199.51" y2="-51.9" xlink:href="#Unbenannter_Verlauf_50"/>
    <linearGradient id="Unbenannter_Verlauf_50-21" data-name="Unbenannter Verlauf 50" x1=".13" y1="-57.32" x2="1199.52" y2="-57.32" xlink:href="#Unbenannter_Verlauf_50"/>
    <linearGradient id="Unbenannter_Verlauf_50-22" data-name="Unbenannter Verlauf 50" x1=".16" y1="-62.75" x2="1199.52" y2="-62.75" xlink:href="#Unbenannter_Verlauf_50"/>
    <linearGradient id="Unbenannter_Verlauf_50-23" data-name="Unbenannter Verlauf 50" x1=".19" y1="-68.24" x2="1199.52" y2="-68.24" xlink:href="#Unbenannter_Verlauf_50"/>
    <linearGradient id="Unbenannter_Verlauf_50-24" data-name="Unbenannter Verlauf 50" x1=".22" y1="-73.72" x2="1199.52" y2="-73.72" xlink:href="#Unbenannter_Verlauf_50"/>
    <linearGradient id="Unbenannter_Verlauf_50-25" data-name="Unbenannter Verlauf 50" x1=".26" y1="-79.21" x2="1199.52" y2="-79.21" xlink:href="#Unbenannter_Verlauf_50"/>
    <linearGradient id="Unbenannter_Verlauf_50-26" data-name="Unbenannter Verlauf 50" x1=".29" y1="-81.59" x2="1199.53" y2="-81.59" xlink:href="#Unbenannter_Verlauf_50"/>
    <linearGradient id="Unbenannter_Verlauf_50-27" data-name="Unbenannter Verlauf 50" x1=".31" y1="-78.63" x2="1199.53" y2="-78.63" xlink:href="#Unbenannter_Verlauf_50"/>
    <linearGradient id="Unbenannter_Verlauf_50-28" data-name="Unbenannter Verlauf 50" x1=".33" y1="-75.49" x2="1199.54" y2="-75.49" xlink:href="#Unbenannter_Verlauf_50"/>
    <linearGradient id="Unbenannter_Verlauf_50-29" data-name="Unbenannter Verlauf 50" x1=".35" y1="-72.12" x2="1199.54" y2="-72.12" xlink:href="#Unbenannter_Verlauf_50"/>
    <linearGradient id="Unbenannter_Verlauf_50-30" data-name="Unbenannter Verlauf 50" x1=".37" y1="-68.51" x2="1199.54" y2="-68.51" xlink:href="#Unbenannter_Verlauf_50"/>
    <linearGradient id="Unbenannter_Verlauf_50-31" data-name="Unbenannter Verlauf 50" x1=".4" y1="-64.65" x2="1199.55" y2="-64.65" xlink:href="#Unbenannter_Verlauf_50"/>
    <linearGradient id="Unbenannter_Verlauf_50-32" data-name="Unbenannter Verlauf 50" x1=".42" y1="-62.82" x2="1199.55" y2="-62.82" xlink:href="#Unbenannter_Verlauf_50"/>
    <linearGradient id="Unbenannter_Verlauf_50-33" data-name="Unbenannter Verlauf 50" x1=".44" y1="-65.34" x2="1199.56" y2="-65.34" xlink:href="#Unbenannter_Verlauf_50"/>
  </defs>
  <g id="objects">
    <g>
      <path class="cls-6" d="M.5,124.15l-.05-.5,3.82-.36c73.43-7.02,149.36-14.29,213.43-47.36,5.18-2.68,10.43-5.48,15.5-8.2,20.28-10.86,41.26-22.08,63.81-27.91,39.37-10.17,80.84-3.39,116.22,4.59,23.1,5.21,46.34,11.54,68.81,17.66,30.78,8.38,62.61,17.05,94.49,22.96,65.59,12.15,119.9,9.86,166.03-7.01,13.64-4.99,26.98-11.46,39.87-17.71,16.83-8.16,34.22-16.6,52.48-21.83,61.66-17.67,127.14,1.72,183.66,21.28,4.05,1.4,8.1,2.81,12.17,4.23,55.17,19.23,112.21,39.13,170.13,32.81l.06.5c-58.04,6.33-115.13-13.58-170.35-32.83-4.06-1.42-8.12-2.83-12.17-4.23-56.46-19.54-121.84-38.9-183.36-21.27-18.22,5.22-35.6,13.65-52.4,21.8-12.9,6.26-26.25,12.73-39.91,17.73-46.22,16.9-100.61,19.2-166.29,7.04-31.9-5.91-63.74-14.58-94.53-22.97-22.47-6.12-45.7-12.45-68.79-17.66-35.32-7.97-76.72-14.75-115.98-4.6-22.5,5.82-43.45,17.03-63.7,27.87-5.07,2.72-10.32,5.52-15.51,8.2C153.78,109.49,77.79,116.76,4.32,123.78l-3.82.37Z"/>
      <path class="cls-14" d="M.47,134.65l-.04-.5c75-5.72,153.64-14.11,218.43-47.76,5.67-2.95,11.41-6.05,16.96-9.04,19.89-10.75,40.46-21.86,62.34-28.19,38.55-11.2,79.54-7.03,114.54-1.48,33.38,5.29,65.44,11.89,103.89,19.98,18.73,3.91,35.61,7.73,51.62,11.68,2.33.58,4.66,1.14,6.98,1.69,7.75,1.86,14.1,3.31,19.98,4.54,28.87,6.06,54.58,8.86,78.58,8.58,22.27-.22,43.66-3.44,63.59-9.58,15.21-4.69,30.2-11.28,44.7-17.65,4.77-2.1,9.69-4.26,14.57-6.34,9.3-3.95,21.63-8.97,34.53-12.68,7.83-2.26,16.03-4.09,24.36-5.45,21.9-3.56,43.16-3.96,65.02-1.22,26.14,3.27,52.02,11.16,74.23,18.29,6.38,2.05,13.18,4.31,21.4,7.11l7.1,2.43c15.82,5.41,32.18,11,48.47,15.89,67.26,20.2,104.31,19.83,129.06,17.25l.05.5c-47.21,4.92-93.88-6.64-129.26-17.27-16.29-4.89-32.66-10.48-48.48-15.89l-7.1-2.43c-8.22-2.8-15.02-5.06-21.4-7.11-22.19-7.12-48.04-15-74.14-18.27-21.81-2.74-43.03-2.34-64.88,1.22-8.31,1.36-16.48,3.18-24.3,5.43-12.88,3.71-25.19,8.71-34.48,12.66-4.88,2.07-9.8,4.24-14.56,6.33-14.51,6.38-29.52,12.98-44.75,17.67-19.97,6.15-41.41,9.39-63.73,9.61-24.05.3-49.78-2.52-78.69-8.59-5.89-1.24-12.24-2.68-20-4.55-2.32-.56-4.65-1.12-6.98-1.69-16-3.95-32.88-7.77-51.6-11.67-38.44-8.08-70.5-14.68-103.87-19.97-34.95-5.54-75.87-9.7-114.33,1.47-21.83,6.32-42.37,17.42-62.24,28.15-5.55,3-11.29,6.1-16.97,9.05C154.22,120.52,75.52,128.93.47,134.65Z"/>
      <path class="cls-4" d="M.44,145.15l-.03-.5c31.13-1.77,72.05-4.79,112.54-12.46,41.65-7.9,76.67-19.46,107.06-35.33,6.24-3.26,12.54-6.69,18.63-10.02,19.43-10.6,39.52-21.56,60.66-28.35,37.51-12.1,76.41-10.79,112.87-7.56,37.68,3.34,70.35,7.34,102.81,12.6,19.52,3.11,36.53,6.85,52.01,11.45,1.06.32,2.13.63,3.18.94,1.23.36,2.45.72,3.67,1.08l2.78.83c5.46,1.63,11.11,3.32,16.62,4.87,28.47,8.02,52.55,12.44,75.78,13.93,21.75,1.39,42.98-.48,63.1-5.54,17.12-4.3,34.16-11.1,50.64-17.68,3.18-1.27,6.37-2.54,9.57-3.8,10.89-4.28,22.67-8.74,35.04-12.32,7.87-2.28,16.12-4.23,24.53-5.81,24.11-4.51,44.82-5.63,65.16-3.53,25.71,2.65,51.9,11.01,75.02,18.39,6.32,2.02,13,4.21,21.66,7.12l2.54.85c17.55,5.89,35.69,11.99,53.78,17.11,35.43,10.04,82.3,20.94,130.65,16.12l.05.5c-8.14.81-16.25,1.18-24.27,1.18-39.63,0-77.06-8.96-106.57-17.32-18.1-5.12-36.25-11.22-53.8-17.12l-2.54-.85c-8.66-2.91-15.33-5.1-21.65-7.12-23.09-7.37-49.26-15.73-74.91-18.37-20.3-2.1-40.96-.98-65.02,3.52-8.39,1.57-16.63,3.52-24.48,5.8-12.35,3.57-24.12,8.02-34.99,12.3-3.2,1.26-6.39,2.53-9.57,3.8-16.5,6.58-33.56,13.39-50.71,17.7-20.17,5.08-41.45,6.94-63.25,5.55-23.26-1.48-47.38-5.92-75.88-13.95-5.52-1.55-11.17-3.24-16.63-4.87l-2.78-.83c-1.22-.36-2.44-.72-3.67-1.08-1.06-.31-2.12-.62-3.19-.94-15.45-4.59-32.44-8.33-51.94-11.43-32.45-5.26-65.11-9.26-102.78-12.59-36.4-3.22-75.24-4.54-112.67,7.54-21.09,6.77-41.16,17.72-60.57,28.31-6.1,3.33-12.4,6.77-18.64,10.02-30.44,15.9-65.5,27.47-107.2,35.38-40.52,7.68-81.47,10.7-112.61,12.47Z"/>
      <path class="cls-27" d="M.41,155.65l-.02-.5c43.29-1.63,80.26-5.48,113.02-11.76,41.47-7.96,76.72-19.76,107.77-36.07,6.88-3.61,13.83-7.44,20.55-11.15,18.88-10.41,38.41-21.18,58.73-28.34,38.22-13.58,77.43-14.16,111.19-13.63,31.97.5,65.03,1.01,101.73,5.22,19.9,2.21,37.04,5.88,52.39,11.22l1.62.56c1.72.6,3.43,1.19,5.12,1.8,3.26,1.17,6.47,2.35,9.65,3.52,3.07,1.13,6.12,2.25,9.16,3.34,27.98,10.04,51.17,16.16,72.98,19.28,21.1,3.01,42.16,2.51,62.61-1.5,19.43-3.8,38.13-10.6,57.92-17.79l3.24-1.18c11.86-4.3,23.5-8.46,35.54-11.96,7.91-2.3,16.22-4.37,24.7-6.17,18.87-3.98,41.38-7.79,65.3-5.84,23.92,1.94,47.64,9.51,70.58,16.83,1.74.56,3.48,1.11,5.22,1.66,7.65,2.43,15.37,4.97,21.91,7.14,17.54,5.8,37.42,12.38,57.07,17.61,52.71,14.06,93.49,18.69,132.23,15l.05.5c-38.81,3.69-79.64-.94-132.41-15.02-19.67-5.24-39.55-11.82-57.1-17.62-6.54-2.16-14.26-4.7-21.9-7.13-1.74-.55-3.48-1.11-5.22-1.66-22.92-7.31-46.61-14.88-70.47-16.81-23.86-1.94-46.33,1.86-65.16,5.83-8.47,1.79-16.77,3.87-24.66,6.16-12.03,3.49-23.66,7.65-35.51,11.95l-3.24,1.18c-19.81,7.2-38.53,14.01-57.99,17.81-20.5,4.02-41.62,4.52-62.77,1.5-21.84-3.12-45.06-9.25-73.07-19.3-3.04-1.09-6.09-2.21-9.16-3.34-3.18-1.17-6.4-2.35-9.65-3.51-1.69-.61-3.4-1.2-5.12-1.79l-1.62-.56c-15.32-5.33-32.42-8.99-52.28-11.19-36.68-4.2-69.73-4.72-101.69-5.21-33.71-.53-72.87.05-111.02,13.6-20.28,7.15-39.79,17.91-58.65,28.31-6.72,3.7-13.67,7.54-20.56,11.15-31.1,16.34-66.39,28.15-107.91,36.12-32.78,6.29-69.78,10.14-113.1,11.77Z"/>
      <path class="cls-16" d="M.37,166.15v-.5c91.6-1.7,164.21-17.36,221.96-47.87,7.64-4.03,15.33-8.32,22.77-12.47,18.23-10.16,37.08-20.67,56.49-28.15,36.8-14.29,74.28-17.57,109.51-19.71,3.56-.22,7.11-.44,10.66-.66,28.39-1.78,57.74-3.62,89.99-1.5,20.37,1.34,37.64,4.93,52.77,10.98l.41.17c2.05.82,4.17,1.67,6.22,2.53,4.46,1.88,8.83,3.83,13.06,5.71,1.73.77,3.45,1.54,5.16,2.29,20.06,8.86,44.09,18.72,70.17,24.63,20.42,4.62,41.32,5.48,62.12,2.55,20.39-2.87,40.19-9.15,62.1-16.46l4.3-1.44c10.34-3.45,21.02-7.03,31.74-10.16,7.88-2.3,16.25-4.5,24.87-6.53,22.43-5.27,42.83-9.51,65.45-8.15,22.91,1.37,45.59,8.66,67.52,15.7,3.03.98,6.05,1.95,9.07,2.9,7.62,2.41,15.34,4.93,22.16,7.15,19.46,6.34,38.53,12.44,57.82,17.26,52,13.03,94.52,17.44,133.82,13.87l.05.5c-39.35,3.57-81.93-.84-133.98-13.89-19.3-4.83-38.38-10.93-57.85-17.27-6.82-2.22-14.54-4.74-22.16-7.15-3.02-.95-6.04-1.92-9.07-2.9-21.9-7.04-44.55-14.31-67.4-15.68-22.55-1.36-42.92,2.88-65.3,8.14-8.61,2.03-16.97,4.23-24.84,6.52-10.71,3.13-21.39,6.7-31.72,10.15l-4.3,1.44c-21.94,7.32-41.76,13.61-62.19,16.48-20.85,2.94-41.81,2.08-62.3-2.55-26.13-5.92-50.18-15.78-70.27-24.66-1.72-.76-3.43-1.52-5.16-2.29-4.23-1.89-8.6-3.83-13.05-5.71-2.04-.86-4.16-1.7-6.21-2.52l-.41-.16c-15.09-6.04-32.3-9.62-52.62-10.95-32.23-2.11-61.56-.27-89.93,1.5-3.55.22-7.1.45-10.66.66-35.19,2.13-72.63,5.4-109.36,19.67-19.37,7.46-38.21,17.96-56.42,28.12-7.45,4.15-15.14,8.44-22.78,12.48C164.75,148.77,92.07,164.45.37,166.15Z"/>
      <path class="cls-12" d="M.59,176.65h-.25v-.5h.25c88.07,0,163.06-16.12,222.91-47.9,8.52-4.52,17.1-9.36,25.39-14.04,17.44-9.84,35.48-20.02,53.86-27.7,37.87-15.98,76.66-21.41,107.83-25.78,5.26-.73,10.57-1.52,15.71-2.28,26.23-3.86,53.35-7.87,83.87-7.27,20.69.4,38.07,3.92,53.16,10.75,1.99.9,4.29,1.95,6.51,3.03,5.15,2.5,10.1,5.15,14.9,7.7l2.74,1.46c24.25,12.89,44.98,22.93,67.37,29.98,19.45,6.12,40.76,8.4,61.63,6.59,21.24-1.84,42.85-7.79,63.04-13.95,4.57-1.4,9.23-2.85,13.74-4.26,7.45-2.33,15.15-4.73,22.81-6.98,7.86-2.3,16.05-4.56,25.04-6.89l3.3-.85c20.76-5.39,40.37-10.48,62.29-9.6,22.3.87,44.34,8.02,65.65,14.94,3.85,1.25,7.84,2.54,11.73,3.77,6.4,2.01,12.89,4.1,19.16,6.11l3.26,1.05c18.57,5.96,38.38,12.18,58.57,16.92,51.91,12.19,94.94,16.24,135.4,12.74l.04.5c-40.52,3.5-83.59-.55-135.56-12.76-20.2-4.74-40.03-10.96-58.6-16.93l-3.26-1.05c-6.27-2.02-12.75-4.1-19.15-6.11-3.9-1.23-7.88-2.52-11.74-3.77-21.28-6.9-43.27-14.04-65.51-14.91-21.84-.86-41.42,4.21-62.15,9.59l-3.3.86c-8.98,2.33-17.16,4.58-25.02,6.89-7.65,2.24-15.35,4.65-22.8,6.97-4.51,1.41-9.17,2.86-13.74,4.26-20.22,6.17-41.86,12.13-63.15,13.97-20.93,1.82-42.31-.46-61.82-6.61-22.42-7.06-43.18-17.11-67.46-30.01l-2.74-1.46c-4.79-2.55-9.74-5.19-14.88-7.69-2.21-1.07-4.51-2.12-6.5-3.02-15.02-6.8-32.34-10.31-52.96-10.71-30.49-.59-57.58,3.4-83.78,7.26-5.14.76-10.45,1.54-15.71,2.28-31.14,4.36-69.9,9.79-107.71,25.74-18.35,7.67-36.38,17.84-53.81,27.68-8.3,4.68-16.87,9.52-25.4,14.05-59.92,31.82-135,47.96-223.14,47.96Z"/>
      <path class="cls-5" d="M11.43,187.25c-3.8,0-7.51-.04-11.11-.11v-.5c59.28,1.13,146.31-6.27,224.35-47.94,9.58-5.11,19.2-10.61,28.5-15.92,16.49-9.43,33.54-19.18,50.74-26.94,35.17-16.03,70.9-23.99,102.43-31.02l3.73-.83c5.93-1.32,11.91-2.74,17.7-4.11,25.04-5.92,50.93-12.05,80.8-12.82,20.7-.54,38.72,3.01,53.54,10.52,1.91.97,4.17,2.13,6.4,3.36,5.58,3.1,10.84,6.41,15.94,9.62l1.11.7c22.15,13.94,42.3,26.22,64.57,35.33,18.76,7.67,39.89,11.35,61.14,10.63,22.92-.76,46.23-6.52,63.99-11.45,8.52-2.36,17.19-4.95,25.58-7.46,3.82-1.14,7.64-2.28,11.47-3.41,8.94-2.63,17.76-5.14,25.21-7.25,2.92-.82,5.82-1.66,8.7-2.5,18.92-5.48,36.8-10.65,57.03-10.27,21.93.41,43.55,7.51,64.45,14.38,4.5,1.48,9.16,3.01,13.71,4.43,5.13,1.61,10.26,3.23,15.37,4.86,2.43.77,4.86,1.55,7.29,2.31,21.96,6.95,40.45,12.43,59.32,16.57,51.02,11.2,95.83,15,136.99,11.62l.04.5c-41.2,3.39-86.06-.42-137.14-11.63-18.89-4.14-37.39-9.62-59.36-16.58-2.43-.77-4.86-1.54-7.29-2.32-5.11-1.62-10.24-3.25-15.37-4.86-4.56-1.42-9.21-2.95-13.72-4.43-20.87-6.85-42.45-13.94-64.31-14.35-20.2-.4-38,4.77-56.88,10.25-2.88.84-5.78,1.68-8.7,2.5-7.45,2.11-16.27,4.62-25.2,7.25-3.83,1.13-7.66,2.27-11.47,3.41-8.39,2.51-17.07,5.1-25.59,7.46-17.78,4.94-41.14,10.7-64.1,11.47-21.32.71-42.52-2.97-61.34-10.67-22.31-9.12-42.48-21.42-64.65-35.37l-1.11-.7c-5.09-3.2-10.35-6.51-15.91-9.6-2.22-1.23-4.47-2.39-6.38-3.35-14.75-7.48-32.71-11-53.3-10.47-29.82.77-55.68,6.89-80.7,12.81-5.79,1.37-11.77,2.79-17.7,4.11l-3.73.83c-31.5,7.02-67.21,14.98-102.33,30.99-17.18,7.76-34.22,17.5-50.7,26.92-9.3,5.32-18.93,10.82-28.51,15.93-73.39,39.19-154.7,48.1-213.47,48.1Z"/>
      <path class="cls-18" d="M19.68,198.01c-6.45,0-12.92-.12-19.41-.37l.02-.5c39.28,1.48,77.95-1.53,114.93-8.96,40.18-8.07,77.39-21.2,110.59-39.02,10.86-5.82,21.73-12.13,32.25-18.23,15.31-8.89,31.15-18.08,46.97-25.76,32.01-15.69,64.36-25.61,92.9-34.36,3.91-1.2,7.77-2.38,11.57-3.56,6.17-1.92,12.4-3.97,18.42-5.95,24.25-8,49.33-16.27,79.01-18.36,21.01-1.48,39.15,1.98,53.92,10.29,2.51,1.41,4.5,2.58,6.28,3.7,5.83,3.66,11.22,7.62,16.44,11.45l2.34,1.72c19.74,14.53,38.39,28.26,59.46,38.98,18.07,9.19,39.05,14.27,60.65,14.67,18.59.35,39.21-2.48,64.93-8.94,12.36-3.1,24.82-6.74,37.56-10.51,7.52-2.22,16.41-4.86,25.38-7.61,4.16-1.27,8.31-2.62,12.33-3.92,17.68-5.73,34.38-11.15,53.54-11.15h.08c21.68,0,42.99,7.09,63.61,13.95,5.01,1.67,10.2,3.39,15.26,4.97,4.13,1.29,8.26,2.58,12.39,3.88,3.51,1.11,7.02,2.21,10.53,3.3,19.02,5.94,39.45,12.01,60.06,16.22,50.74,10.38,96.06,13.81,138.57,10.49l.04.5c-42.56,3.32-87.93-.11-138.71-10.5-20.64-4.21-41.09-10.29-60.11-16.23-3.51-1.1-7.02-2.2-10.53-3.3-4.13-1.3-8.26-2.6-12.39-3.88-5.07-1.58-10.26-3.3-15.27-4.97-20.58-6.84-41.85-13.92-63.45-13.92h-.08c-19.08,0-35.74,5.41-53.39,11.13-4.02,1.3-8.17,2.65-12.34,3.92-8.97,2.75-17.86,5.39-25.38,7.61-12.74,3.77-25.2,7.41-37.58,10.51-25.76,6.47-46.45,9.31-65.06,8.96-21.68-.4-42.73-5.5-60.87-14.73-21.1-10.74-39.77-24.48-59.53-39.02l-2.31-1.7c-5.23-3.85-10.62-7.8-16.43-11.45-1.77-1.11-3.76-2.28-6.26-3.68-14.69-8.26-32.73-11.7-53.64-10.23-29.62,2.08-54.66,10.35-78.89,18.33-6.02,1.99-12.25,4.04-18.42,5.96-3.8,1.18-7.66,2.36-11.57,3.56-28.52,8.75-60.86,18.66-92.83,34.33-15.81,7.68-31.64,16.86-46.94,25.74-10.52,6.1-21.4,12.42-32.26,18.24-33.24,17.84-70.5,30.99-110.73,39.07-30.91,6.21-63,9.34-95.64,9.34Z"/>
      <path class="cls-11" d="M25.72,208.86c-8.48,0-16.98-.24-25.48-.71l.03-.5c80.44,4.53,160.94-12.53,226.7-48.01,12.44-6.7,24.86-14.04,36.88-21.13,13.84-8.17,28.15-16.62,42.33-23.99,28.33-14.87,55.68-25.53,82.12-35.85,7.18-2.8,13.97-5.45,20.67-8.14,6.2-2.49,12.45-5.16,18.49-7.74,23.66-10.11,48.12-20.56,77.86-23.95,21.31-2.43,39.58.95,54.3,10.06,2.4,1.48,4.35,2.76,6.16,4.03,5.53,3.89,10.46,8.02,15.88,12.63,2.39,2.04,4.76,4.07,7.11,6.09,17.1,14.66,33.26,28.51,51.85,39.95,17.39,10.69,38.19,17.16,60.16,18.71,19.1,1.36,40.65-.75,65.87-6.44,11.16-2.51,22.9-5.64,38.06-10.14,9.21-2.73,17.56-5.34,25.55-7.97,5.05-1.66,10.07-3.47,14.92-5.23,16.8-6.07,32.67-11.8,51.09-12.16,21.58-.45,42.75,6.7,63.23,13.6,5.42,1.83,11.03,3.72,16.51,5.42,3.23,1,6.45,2,9.68,3.01,4.5,1.4,9,2.8,13.49,4.19,19.07,5.87,39.64,11.86,60.81,15.87,50.31,9.56,96.16,12.62,140.16,9.37l.04.5c-44.04,3.26-89.93.19-140.29-9.37-21.2-4.02-41.78-10.01-60.87-15.88-4.5-1.39-9-2.79-13.5-4.19-3.23-1.01-6.45-2.01-9.68-3.01-5.48-1.7-11.1-3.59-16.53-5.42-20.43-6.89-41.55-13.99-63.06-13.58-18.34.36-34.17,6.08-50.93,12.13-4.85,1.75-9.87,3.57-14.94,5.23-7.99,2.63-16.35,5.24-25.56,7.98-15.18,4.51-26.92,7.64-38.09,10.15-25.27,5.7-46.86,7.81-66.02,6.45-22.05-1.55-42.93-8.05-60.39-18.78-18.62-11.46-34.79-25.32-51.92-39.99-2.35-2.02-4.72-4.05-7.11-6.08-5.41-4.6-10.33-8.73-15.84-12.6-1.8-1.27-3.75-2.54-6.14-4.02-14.62-9.05-32.78-12.4-53.98-9.98-29.66,3.39-54.09,13.82-77.72,23.92-6.04,2.58-12.29,5.25-18.5,7.74-6.71,2.7-13.5,5.34-20.68,8.14-26.43,10.31-53.76,20.97-82.07,35.82-14.17,7.37-28.48,15.82-42.31,23.98-12.02,7.09-24.44,14.43-36.89,21.14-58.89,31.77-129.6,48.79-201.49,48.79Z"/>
      <path class="cls-30" d="M30.94,219.78c-10.26,0-20.5-.38-30.73-1.14l.04-.5c78.96,5.88,159.89-11.18,227.89-48.05,14.46-7.83,28.83-16.48,42.73-24.85,11.95-7.2,24.31-14.64,36.47-21.39,23.92-13.4,47.06-24.31,69.44-34.85,11.1-5.23,21.58-10.17,31.68-15.2,6.1-3.04,12.24-6.29,18.19-9.43,23.18-12.27,47.14-24.95,77.08-29.65,21.62-3.39,40.02-.09,54.68,9.82,2.27,1.54,4.25,2.96,6.05,4.37,5.55,4.34,10.4,9,15.29,13.79,3.46,3.39,6.91,6.82,10.24,10.13,15.05,14.97,29.26,29.11,45.93,41.25,16.71,12.17,37.34,20.04,59.68,22.75,19.77,2.41,41.62,1.12,66.82-3.93,11.8-2.36,24.42-5.57,38.57-9.78,8.93-2.67,17.59-5.47,25.72-8.33,5.73-2.02,11.39-4.27,16.85-6.46,16.14-6.45,31.39-12.55,49.3-13.23,21.55-.85,42.59,6.36,62.96,13.32,5.77,1.97,11.74,4.01,17.57,5.81,2.31.71,4.62,1.43,6.94,2.15,5.4,1.67,10.99,3.4,16.48,5.07,18.24,5.54,39.82,11.71,61.57,15.52,49.04,8.61,96.73,11.39,141.74,8.24l.04.5c-45.05,3.15-92.78.38-141.86-8.24-21.78-3.82-43.37-9.99-61.62-15.53-5.5-1.67-11.09-3.4-16.49-5.07-2.31-.72-4.63-1.43-6.94-2.14-5.84-1.8-11.81-3.84-17.58-5.81-20.33-6.94-41.33-14.13-62.78-13.29-17.83.68-33.04,6.76-49.14,13.2-5.47,2.19-11.13,4.45-16.87,6.47-8.14,2.87-16.8,5.67-25.74,8.34-14.16,4.22-26.79,7.43-38.61,9.8-25.24,5.07-47.15,6.35-66.98,3.94-22.42-2.72-43.13-10.62-59.91-22.84-16.7-12.17-30.92-26.32-45.98-41.3-3.33-3.31-6.78-6.74-10.23-10.13-4.88-4.78-9.72-9.43-15.25-13.75-1.78-1.39-3.75-2.82-6.02-4.35-14.56-9.84-32.84-13.12-54.33-9.74-29.85,4.69-53.78,17.35-76.92,29.6-5.94,3.15-12.09,6.4-18.2,9.44-10.11,5.03-20.59,9.97-31.69,15.2-22.37,10.55-45.5,21.45-69.41,34.84-12.15,6.75-24.51,14.19-36.46,21.39-13.9,8.37-28.28,17.03-42.75,24.86-59.28,32.13-128.38,49.24-197.44,49.24Z"/>
      <path class="cls-2" d="M35.26,230.75c-11.74,0-23.44-.53-35.07-1.61l.05-.5c77.61,7.19,158.95-9.89,229.07-48.08,17.11-9.31,34.01-19.74,50.36-29.83,9.46-5.84,19.25-11.88,28.83-17.54,18.42-10.97,36.36-20.81,53.72-30.33,16.18-8.88,31.47-17.26,45.72-25.79,5.93-3.55,11.9-7.34,17.68-11.02,22.76-14.47,46.29-29.43,76.51-35.45,21.62-4.31,40.66-.99,55.07,9.59,2.19,1.61,4.13,3.15,5.93,4.7,5.53,4.79,10.29,10.01,14.7,14.95,4.12,4.62,8.19,9.31,12.13,13.83,13.41,15.43,26.07,30.01,41.23,42.9,16.04,13.64,36.51,22.9,59.19,26.79,20.06,3.45,42.86,2.97,67.76-1.43,12.43-2.19,25.21-5.27,39.07-9.42,8.91-2.67,17.62-5.59,25.89-8.7,6.27-2.35,12.41-5.04,18.35-7.65,15.63-6.87,30.39-13.35,47.95-14.35,21.53-1.23,42.53,6.04,62.84,13.07,6.07,2.1,12.34,4.27,18.47,6.15l4.78,1.47c6.19,1.9,12.59,3.87,18.9,5.76,18.32,5.48,40.06,11.58,62.31,15.17,48.29,7.81,96.51,10.2,143.32,7.11l.03.5c-46.85,3.1-95.11.7-143.44-7.11-22.29-3.6-44.04-9.7-62.38-15.19-6.31-1.89-12.71-3.86-18.9-5.76l-4.78-1.47c-6.13-1.88-12.41-4.06-18.48-6.16-20.27-7.02-41.23-14.29-62.65-13.05-17.47.99-32.19,7.46-47.77,14.31-5.95,2.61-12.1,5.32-18.38,7.67-8.28,3.11-17,6.04-25.92,8.7-13.88,4.15-26.67,7.24-39.13,9.44-24.96,4.4-47.82,4.89-67.93,1.43-22.77-3.9-43.32-13.2-59.43-26.9-15.19-12.92-27.87-27.51-41.29-42.95-3.93-4.53-8-9.21-12.12-13.83-4.4-4.93-9.15-10.14-14.66-14.9-1.78-1.54-3.71-3.07-5.9-4.68-14.29-10.49-33.2-13.78-54.67-9.5-30.13,6-53.62,20.94-76.34,35.38-5.78,3.67-11.75,7.47-17.69,11.02-14.26,8.53-29.55,16.92-45.74,25.8-17.35,9.52-35.29,19.36-53.7,30.32-9.58,5.66-19.36,11.7-28.82,17.54-16.35,10.09-33.26,20.53-50.38,29.84-59.7,32.52-127.54,49.75-194.29,49.75Z"/>
      <path class="cls-1" d="M38.88,241.76c-13.01,0-25.94-.7-38.72-2.11l.06-.5c76.35,8.44,158.12-8.64,230.25-48.12,20.74-11.34,41.06-24.28,60.71-36.79,6.07-3.86,12.34-7.86,18.47-11.7,11.13-7.03,22.13-13.82,32.77-20.38,23.31-14.38,45.33-27.96,64.99-41.8,5.72-4.02,11.47-8.32,17.03-12.48,22.37-16.72,45.5-34.01,76.08-41.37,21.92-5.27,41.1-2.04,55.44,9.36,2.13,1.69,4.03,3.34,5.81,5.04,5.46,5.21,10.15,11.05,14.11,16.11,4.5,5.75,8.9,11.59,13.15,17.24,12.06,16.03,23.46,31.17,37.41,44.85,15.39,15.08,35.68,25.74,58.71,30.83,20.56,4.55,43.67,4.91,68.71,1.08,12.74-1.95,26.06-5,39.57-9.06,8.95-2.69,17.72-5.73,26.06-9.06,6.69-2.66,13.22-5.79,19.53-8.81,15.23-7.31,29.61-14.21,46.91-15.5,21.56-1.63,42.54,5.74,62.84,12.86,6.33,2.22,12.87,4.52,19.26,6.47l2.26.69c7.1,2.17,14.43,4.41,21.67,6.55,18.44,5.45,40.35,11.46,63.06,14.82,47.31,7.01,96.07,9.03,144.91,5.98l.03.5c-48.87,3.04-97.66,1.03-145.01-5.99-22.74-3.36-44.68-9.39-63.13-14.84-7.24-2.14-14.58-4.38-21.68-6.55l-2.26-.69c-6.4-1.95-12.95-4.25-19.28-6.47-20.25-7.1-41.18-14.45-62.64-12.84-17.21,1.28-31.55,8.16-46.73,15.45-6.32,3.03-12.85,6.17-19.56,8.83-8.36,3.33-17.14,6.38-26.1,9.07-13.54,4.07-26.88,7.12-39.64,9.08-25.1,3.84-48.28,3.48-68.89-1.08-23.11-5.1-43.5-15.81-58.95-30.96-13.98-13.71-25.39-28.86-37.46-44.91-4.25-5.65-8.65-11.49-13.14-17.23-3.95-5.05-8.63-10.87-14.07-16.05-1.77-1.69-3.66-3.33-5.78-5.01-9.92-7.88-27.51-15.88-55.02-9.26-30.48,7.34-53.57,24.6-75.89,41.29-5.56,4.16-11.32,8.46-17.04,12.49-19.67,13.85-41.7,27.44-65.02,41.82-10.64,6.56-21.65,13.35-32.77,20.38-6.13,3.85-12.4,7.84-18.47,11.7-19.65,12.52-39.98,25.46-60.74,36.81-60.14,32.92-126.99,50.29-191.82,50.29Z"/>
      <path class="cls-32" d="M41.96,252.78c-14.12,0-28.09-.87-41.84-2.64l.06-.5c75.2,9.66,157.39-7.44,231.43-48.16,26.07-14.32,51.24-31.06,75.59-47.24l5.22-3.48c34.47-23.03,67.03-44.79,94.45-67.15,5.5-4.48,11.03-9.27,16.37-13.9,21.98-19.02,44.7-38.69,75.65-47.34,15.47-4.39,37.72-6.36,55.82,9.12,2.03,1.74,3.95,3.55,5.7,5.38,4.84,5.07,8.91,10.57,13.53,17.27,4.67,6.77,9.18,13.69,13.55,20.37,10.93,16.74,21.25,32.54,34.21,47.07,14.74,16.52,34.87,28.57,58.22,34.87,21,5.67,44.43,6.88,69.65,3.58,13.14-1.71,26.62-4.64,40.08-8.7,8.98-2.71,17.81-5.88,26.23-9.42,7.05-2.95,13.88-6.51,20.48-9.95,14.24-7.42,28.97-15.09,46.1-16.67,21.62-2,42.61,5.46,62.92,12.68,6.56,2.33,13.35,4.74,19.97,6.76l.41.12c7.78,2.37,15.83,4.81,23.77,7.13,17.48,5.09,40.53,11.34,63.81,14.48,46.07,6.22,95.35,7.85,146.49,4.86l.03.5c-51.17,2.99-100.49,1.36-146.59-4.86-23.32-3.14-46.39-9.39-63.89-14.49-7.95-2.32-16-4.76-23.78-7.13l-.41-.12c-6.63-2.02-13.42-4.43-19.99-6.77-20.26-7.2-41.2-14.64-62.71-12.65-17.03,1.57-31.06,8.88-45.91,16.61-6.61,3.44-13.45,7.01-20.52,9.97-8.43,3.55-17.28,6.72-26.28,9.43-13.48,4.07-26.99,7-40.16,8.72-25.29,3.3-48.78,2.09-69.85-3.6-23.44-6.32-43.66-18.43-58.47-35.02-12.99-14.55-23.32-30.37-34.26-47.13-4.36-6.68-8.88-13.6-13.54-20.36-4.6-6.68-8.66-12.16-13.48-17.2-1.73-1.81-3.64-3.61-5.66-5.34-17.93-15.34-40-13.38-55.36-9.02-30.85,8.62-53.53,28.26-75.46,47.24-5.35,4.63-10.88,9.42-16.38,13.91-27.43,22.37-60,44.14-94.48,67.18l-5.22,3.48c-24.35,16.19-49.54,32.93-75.62,47.27-60.6,33.32-126.67,50.85-189.9,50.85Z"/>
      <path class="cls-20" d="M44.63,263.82c-15.1,0-29.98-1.05-44.53-3.18l.07-.49c74.12,10.84,156.73-6.27,232.62-48.19,28.37-15.66,55.93-34.44,79.15-50.75,41.86-29.52,70.98-52.44,94.42-74.31,5.23-4.88,10.48-10.08,15.57-15.1,21.62-21.38,43.99-43.48,75.38-53.53,28.44-9.18,46.26-.23,56.2,8.89,1.97,1.81,3.85,3.73,5.58,5.71,5.03,5.76,9.19,12.26,12.94,18.42,4.68,7.71,9.16,15.62,13.49,23.26,9.94,17.54,19.33,34.11,31.46,49.53,14.11,17.94,34.07,31.39,57.74,38.91,21.09,6.71,45.51,8.81,70.59,6.09,13.49-1.46,27.14-4.27,40.59-8.34,9.04-2.74,17.92-6.03,26.4-9.78,7.34-3.24,14.42-7.22,21.26-11.07,13.99-7.86,28.45-16,45.46-17.86,21.71-2.38,42.73,5.19,63.07,12.51,6.77,2.44,13.77,4.96,20.6,7.03,8.68,2.63,16.5,4.98,24.44,7.27,17.6,5.06,40.85,11.24,64.56,14.12,45.1,5.5,93.53,6.72,148.07,3.73l.03.5c-54.58,2.99-103.04,1.77-148.16-3.73-23.74-2.89-47.02-9.08-64.64-14.14-7.93-2.28-15.76-4.64-24.44-7.27-6.84-2.07-13.85-4.6-20.63-7.03-20.28-7.3-41.26-14.86-62.85-12.48-16.91,1.85-31.32,9.96-45.27,17.8-6.85,3.85-13.94,7.84-21.31,11.09-8.5,3.76-17.4,7.05-26.46,9.8-13.47,4.08-27.16,6.89-40.67,8.36-25.16,2.73-49.64.62-70.8-6.11-23.76-7.55-43.81-21.06-57.98-39.08-12.16-15.45-21.99-32.81-31.5-49.59-4.33-7.64-8.81-15.54-13.49-23.25-3.73-6.14-7.88-12.62-12.89-18.35-1.72-1.96-3.58-3.87-5.54-5.67-9.84-9.04-27.5-17.9-55.71-8.78-31.28,10.01-53.59,32.07-75.18,53.41-5.09,5.03-10.35,10.23-15.58,15.11-23.45,21.89-52.59,44.82-94.47,74.36-23.23,16.31-50.81,35.1-79.2,50.77-61.08,33.74-126.51,51.43-188.39,51.43Z"/>
      <path class="cls-31" d="M46.95,274.87c-15.97,0-31.64-1.23-46.89-3.73l.08-.49c73.12,11.98,156.15-5.15,233.8-48.23,24.37-13.51,50.25-30.48,79.14-51.87,37.85-28.11,68.19-54.4,92.74-80.38,4.95-5.23,9.92-10.79,14.73-16.17,21.28-23.79,43.28-48.38,75.13-59.84,10.53-3.81,20.52-5.21,29.69-4.17,10.37,1.18,19.42,5.5,26.88,12.83,1.92,1.88,3.75,3.92,5.46,6.05,4.94,6.16,8.85,13.05,12.35,19.58,4.6,8.59,8.94,17.43,13.13,25.98,8.64,17.61,17.58,35.82,29.02,52.17,13.42,19.33,33.22,34.18,57.26,42.95,21.45,7.83,46.19,10.81,71.54,8.59,13.81-1.21,27.63-3.89,41.09-7.98,9.09-2.76,18.03-6.17,26.57-10.14,7.6-3.52,14.88-7.92,21.92-12.17,13.77-8.32,28.01-16.92,44.94-19.06,21.79-2.76,42.89,4.93,63.28,12.36,6.96,2.54,14.16,5.16,21.18,7.28,7.94,2.39,16.38,4.92,24.69,7.28,17.74,5.03,41.19,11.14,65.31,13.78,43.64,4.77,91.19,5.6,149.66,2.6l.03.5c-58.49,2.99-106.07,2.17-149.74-2.61-24.16-2.64-47.64-8.76-65.4-13.79-8.31-2.36-16.76-4.89-24.7-7.28-7.04-2.12-14.24-4.75-21.21-7.29-20.33-7.41-41.35-15.08-63.04-12.33-16.83,2.13-31.02,10.7-44.75,18.99-7.05,4.26-14.34,8.67-21.97,12.2-8.56,3.97-17.52,7.39-26.64,10.16-13.49,4.1-27.35,6.79-41.19,8-25.42,2.22-50.24-.76-71.76-8.62-24.13-8.81-44.02-23.72-57.5-43.13-11.46-16.39-20.41-34.61-29.06-52.24-4.19-8.54-8.53-17.38-13.12-25.96-3.48-6.51-7.39-13.37-12.3-19.5-1.69-2.11-3.52-4.13-5.42-6-9.79-9.61-27.46-18.9-56.05-8.55-31.73,11.42-53.69,35.97-74.92,59.71-4.81,5.38-9.79,10.95-14.74,16.18-24.57,25.99-54.93,52.3-92.81,80.43-28.9,21.4-54.81,38.38-79.2,51.91-61.55,34.15-126.5,52.02-187.23,52.02Z"/>
      <path class="cls-17" d="M49.58,286.01c-16.93,0-33.47-1.46-49.55-4.37l.09-.49c37.4,6.78,77.36,5.65,118.76-3.35,38.8-8.44,77.9-23.55,116.22-44.91,25.92-14.44,52.54-32.27,79.13-53,35.52-27.73,66.17-56.82,91.07-86.44,4.66-5.54,9.35-11.43,13.89-17.11,20.92-26.24,42.56-53.38,74.89-66.29,22.85-9.14,43.08-6.15,56.95,8.42,1.84,1.92,3.64,4.07,5.34,6.38,4.82,6.55,8.5,13.84,11.76,20.74,4.43,9.4,8.56,19.1,12.54,28.48,7.87,18.51,16.01,37.66,26.8,55.02,12.84,20.74,32.48,36.99,56.78,46.99,21.78,8.97,46.84,12.8,72.49,11.09,14.11-.94,28.1-3.5,41.59-7.62,9.16-2.79,18.16-6.33,26.74-10.5,7.81-3.8,15.26-8.61,22.46-13.27,13.59-8.78,27.64-17.87,44.54-20.28,21.91-3.14,43.07,4.67,63.53,12.23,7.14,2.64,14.52,5.36,21.72,7.52,9.27,2.78,17.06,5.08,24.94,7.29,17.88,5.01,41.54,11.05,66.06,13.43,52.94,5.13,106.17,3.63,151.24,1.47l.02.5c-45.09,2.15-98.34,3.66-151.31-1.48-24.56-2.38-48.25-8.43-66.15-13.44-7.89-2.21-15.68-4.51-24.95-7.29-7.22-2.16-14.6-4.89-21.75-7.53-20.4-7.53-41.49-15.31-63.28-12.2-16.79,2.4-30.79,11.45-44.34,20.21-7.22,4.66-14.67,9.49-22.52,13.3-8.61,4.18-17.63,7.73-26.81,10.53-13.53,4.12-27.56,6.69-41.71,7.64-25.71,1.71-50.86-2.14-72.71-11.13-24.4-10.04-44.11-26.36-57.01-47.19-10.81-17.4-18.96-36.56-26.84-55.09-3.98-9.38-8.11-19.07-12.54-28.46-3.24-6.87-6.91-14.13-11.71-20.65-1.69-2.3-3.48-4.43-5.3-6.33-13.72-14.42-33.76-17.37-56.4-8.3-32.21,12.85-53.8,39.94-74.68,66.13-4.54,5.69-9.23,11.58-13.89,17.13-24.93,29.65-55.6,58.76-91.15,86.51-26.61,20.74-53.26,38.59-79.19,53.04-38.36,21.38-77.51,36.51-116.36,44.96-23.67,5.15-46.88,7.73-69.4,7.73Z"/>
      <path class="cls-15" d="M51.79,297.12c-17.72,0-35.02-1.65-51.79-4.98l.1-.49c68.39,13.59,145.73-.78,223.67-41.54,35.04-18.33,68.83-41.29,100.41-68.24,30.66-26.16,57.78-54.81,80.61-85.15,4.37-5.81,8.78-11.97,13.04-17.93,20.56-28.76,41.83-58.49,74.65-72.86,23.14-10.13,43.49-7.22,57.32,8.19,6.97,7.76,11.59,17.05,16.39,28.61,4.22,10.15,8.07,20.66,11.8,30.83,7.15,19.47,14.53,39.61,24.74,58.03,23.55,42.49,73.27,67.28,129.73,64.63,24.35-1.14,47.57-7.23,69.01-18.11,8-4.06,15.59-9.29,22.93-14.35,13.43-9.26,27.33-18.83,44.22-21.51,22.04-3.51,43.28,4.43,63.81,12.1,7.3,2.73,14.85,5.55,22.22,7.75,31,9.26,61.36,17.78,92.01,20.38,50.87,4.32,101.32,2.63,152.82.35l.02.5c-51.53,2.28-101.99,3.97-152.89-.35-30.69-2.6-61.08-11.14-92.11-20.4-7.38-2.2-14.94-5.03-22.25-7.76-20.47-7.65-41.63-15.56-63.56-12.07-16.78,2.67-30.62,12.2-44.01,21.43-7.35,5.06-14.95,10.3-22.98,14.38-21.51,10.92-44.79,17.03-69.21,18.17-56.64,2.62-106.55-22.22-130.19-64.89-10.23-18.45-17.62-38.61-24.77-58.1-3.73-10.16-7.58-20.66-11.79-30.81-4.78-11.51-9.38-20.76-16.3-28.47-18.45-20.55-43.48-13.88-56.75-8.07-32.7,14.31-53.92,43.99-74.45,72.69-4.26,5.96-8.67,12.12-13.05,17.94-22.85,30.37-49.99,59.04-80.68,85.23-31.61,26.98-65.43,49.96-100.5,68.3-58.93,30.82-117.55,46.57-172.21,46.57Z"/>
      <path class="cls-19" d="M47.26,292.92c-16.24,0-32.01-1.35-47.23-4.06l.09-.49c50,8.89,132.67,7.25,242.53-51.04,33.03-17.44,64.39-38.24,93.21-61.82,25.84-21.21,49.25-44.36,69.6-68.79,4.78-5.75,9.61-11.88,14.27-17.8,21.04-26.7,42.79-54.31,75.07-68.11,22.75-9.73,43.01-7.4,57.05,6.54,7.86,7.81,13.17,17.47,17.32,25.88,4.73,9.59,9.06,19.52,13.24,29.13,7.52,17.26,15.29,35.1,25.62,51.38,12.5,19.78,31.7,35.43,55.53,45.26,22.12,9.12,47.62,13.14,73.75,11.59,5.03-.29,10.1-.8,15.07-1.49,18.65-2.59,36.69-7.97,53.62-15.97,7.82-3.7,15.26-8.39,22.46-12.93,13.64-8.6,27.75-17.5,44.59-19.57,5.54-.68,11.14-.68,17.11,0,15.57,1.78,30.83,7.85,45.59,13.73,7.14,2.84,14.53,5.78,21.73,8.14,28.98,9.44,57.41,18.21,86.67,21.87,1.26.16,2.52.3,3.78.44,43.34,4.66,90.07,5.22,151.51,1.8l.03.5c-61.47,3.42-108.22,2.86-151.59-1.81-1.27-.14-2.53-.28-3.79-.44-29.3-3.66-57.76-12.45-86.76-21.89-7.22-2.36-14.61-5.3-21.77-8.15-14.73-5.86-29.96-11.93-45.47-13.7-5.93-.68-11.49-.68-16.99,0-16.73,2.06-30.79,10.93-44.39,19.5-7.21,4.55-14.67,9.25-22.52,12.96-16.97,8.03-35.06,13.41-53.77,16.02-4.98.69-10.06,1.2-15.11,1.49-26.2,1.54-51.78-2.48-73.97-11.63-23.93-9.87-43.21-25.59-55.76-45.45-10.35-16.31-18.13-34.17-25.66-51.44-4.18-9.6-8.51-19.53-13.23-29.11-4.14-8.38-9.41-17.99-17.23-25.75-13.89-13.8-33.96-16.08-56.51-6.44-32.17,13.75-53.88,41.31-74.88,67.97-4.67,5.92-9.5,12.05-14.28,17.81-20.37,24.45-43.81,47.62-69.67,68.85-28.85,23.6-60.24,44.42-93.29,61.88-40.79,21.64-81.17,37.16-120.01,46.12-26.08,6.01-51.36,9.02-75.6,9.02Z"/>
      <path class="cls-22" d="M42.38,288.78c-14.57,0-28.68-1.07-42.32-3.21l.08-.49c69.03,10.82,150.25-5.84,241.43-49.52,33.53-15.91,65.03-34.6,93.6-55.55,26.01-19.22,49.88-40.52,70.96-63.29,5.26-5.7,10.57-11.8,15.71-17.7,21.45-24.64,43.62-50.12,75.3-63.34,22.36-9.34,42.53-7.6,56.78,4.9,6.58,5.77,12.22,12.92,18.26,23.16,5.28,8.94,10.1,18.22,14.77,27.18,7.87,15.12,16.01,30.75,26.42,44.98,12.94,17.69,32.23,31.49,55.78,39.92,21.93,7.84,47.18,11.01,73.06,9.16,4.98-.35,10.01-.89,14.95-1.6,18.46-2.65,36.43-7.76,53.42-15.2,7.58-3.32,14.84-7.48,21.86-11.5,14.54-8.33,28.27-16.19,45.1-17.65,5.39-.46,11.05-.25,16.82.61,15.3,2.29,30.29,8.63,44.78,14.77,6.98,2.95,14.19,6.01,21.24,8.51,28.28,10.01,56.08,19.35,85.16,23.72,1.24.18,2.48.36,3.73.53,44.69,5.85,95.23,6.95,150.2,3.26l.03.5c-55.01,3.7-105.57,2.6-150.3-3.26-1.25-.17-2.49-.34-3.73-.53-29.12-4.37-56.95-13.73-85.26-23.74-7.06-2.51-14.28-5.57-21.27-8.52-14.47-6.13-29.43-12.46-44.66-14.74-5.73-.85-11.35-1.06-16.7-.61-16.72,1.45-30.41,9.28-44.9,17.58-7.03,4.03-14.3,8.19-21.91,11.52-17.03,7.46-35.05,12.59-53.55,15.24-4.95.71-10,1.25-14.99,1.61-25.93,1.86-51.27-1.32-73.26-9.18-23.65-8.46-43.02-22.32-56.02-40.09-10.43-14.26-18.58-29.91-26.46-45.04-4.67-8.96-9.49-18.23-14.76-27.16-6.02-10.19-11.61-17.3-18.16-23.04-14.1-12.36-34.08-14.07-56.26-4.81-31.57,13.17-53.71,38.61-75.12,63.2-5.14,5.9-10.45,12.01-15.72,17.71-21.1,22.8-44.99,44.11-71.03,63.35-28.6,20.98-60.12,39.68-93.68,55.6-73.26,35.1-140.13,52.77-199.41,52.77Z"/>
      <path class="cls-8" d="M37.55,284.77c-12.85,0-25.31-.83-37.45-2.47l.07-.5c36.84,4.99,76.55,2.42,121.41-7.85,35.48-8.13,74.39-21.26,118.93-40.14,35.67-15.12,66.41-31.24,93.99-49.29,25.87-16.93,50.2-36.37,72.32-57.79,5.81-5.65,11.43-11.47,17.38-17.64,21.78-22.58,44.3-45.92,75.29-58.53,28.17-11.48,46.28-4.57,56.51,3.25,6.96,5.32,13.06,11.81,19.19,20.43,5.83,8.19,11.17,16.71,16.34,24.95,8.2,13.08,16.68,26.6,27.18,38.87,13.54,15.82,32.39,27.46,56.02,34.59,21.72,6.55,46.75,8.87,72.38,6.71,4.94-.41,9.93-.99,14.84-1.72,18.25-2.7,36.15-7.55,53.21-14.43,7.29-2.94,14.31-6.56,21.09-10.06,14.86-7.67,28.9-14.92,45.78-15.73,5.33-.24,10.89.17,16.53,1.21,15.02,2.8,29.74,9.42,43.97,15.82,6.81,3.07,13.86,6.24,20.74,8.89,26.49,10.15,54.77,20.48,83.66,25.57,1.22.21,2.44.42,3.67.61,46.02,7.15,97.51,8.77,148.89,4.71l.04.5c-51.41,4.07-102.94,2.43-149-4.72-1.23-.19-2.46-.4-3.68-.61-28.93-5.09-57.23-15.43-83.75-25.59-6.9-2.65-13.95-5.83-20.77-8.9-14.21-6.39-28.89-13-43.86-15.79-5.6-1.04-11.13-1.45-16.41-1.21-16.77.81-30.76,8.03-45.58,15.67-6.8,3.51-13.82,7.13-21.14,10.08-17.1,6.89-35.04,11.76-53.33,14.47-4.92.73-9.92,1.31-14.87,1.72-25.69,2.16-50.78-.16-72.56-6.73-23.72-7.15-42.65-18.84-56.26-34.74-10.52-12.3-19.01-25.83-27.22-38.93-5.16-8.23-10.5-16.75-16.32-24.93-6.1-8.57-12.17-15.03-19.09-20.32-10.13-7.74-28.07-14.57-56.02-3.18-30.89,12.56-53.37,35.87-75.12,58.41-5.95,6.17-11.57,11.99-17.39,17.65-22.14,21.44-46.49,40.9-72.39,57.85-27.6,18.07-58.37,34.2-94.06,49.33-44.57,18.89-83.5,32.03-119.02,40.17-30.13,6.91-57.95,10.34-84.13,10.34Z"/>
      <path class="cls-29" d="M32.03,280.78c-10.69,0-21.33-.56-31.9-1.77l.06-.5c80.4,9.18,165.65-19.18,239.25-46.48,37.5-13.91,67.48-27.58,94.38-43.02,25.94-14.9,50.73-32.49,73.67-52.29,6.47-5.61,12.73-11.44,19.35-17.61,22.01-20.51,44.77-41.71,74.97-53.68,15.28-6.07,37.44-10.72,56.24,1.6,7.41,4.86,13.99,10.65,20.12,17.7,6.39,7.35,12.25,15.02,17.93,22.43,8.52,11.14,17.32,22.65,27.91,33.05,13.95,13.69,32.88,23.54,56.26,29.26,21.5,5.26,46.3,6.74,71.7,4.27,4.88-.47,9.83-1.09,14.72-1.83,18.02-2.74,35.85-7.34,53.01-13.67,6.93-2.55,13.64-5.64,20.12-8.63,15.26-7.03,29.67-13.66,46.67-13.81.11,0,.23,0,.35,0,5.16,0,10.5.61,15.89,1.82,14.75,3.31,29.19,10.2,43.16,16.87,6.65,3.18,13.53,6.46,20.25,9.26,25.84,10.69,53.46,21.61,82.15,27.41,1.2.24,2.41.47,3.62.7,47.29,8.52,98.32,10.66,147.57,6.16l.05.5c-49.3,4.49-100.37,2.36-147.71-6.17-1.21-.22-2.42-.46-3.63-.7-28.73-5.81-56.39-16.74-82.24-27.44-6.74-2.8-13.62-6.09-20.28-9.27-13.94-6.66-28.36-13.54-43.05-16.83-5.47-1.23-10.87-1.85-16.12-1.81-16.89.15-31.25,6.76-46.46,13.77-6.49,2.99-13.21,6.08-20.15,8.64-17.19,6.34-35.06,10.94-53.11,13.69-4.9.75-9.86,1.37-14.75,1.84-25.46,2.48-50.31,1-71.87-4.28-23.46-5.74-42.47-15.63-56.49-29.39-10.62-10.42-19.43-21.95-27.96-33.1-5.67-7.41-11.53-15.08-17.91-22.41-6.1-7.02-12.65-12.78-20.02-17.61-18.62-12.2-40.61-7.58-55.78-1.56-30.11,11.93-52.83,33.1-74.81,53.58-6.63,6.18-12.89,12.01-19.37,17.62-22.97,19.82-47.78,37.43-73.75,52.35-26.92,15.46-56.93,29.14-94.45,43.06-63.99,23.73-136.79,48.27-207.59,48.27Z"/>
      <path class="cls-9" d="M25.97,276.9c-8.67,0-17.27-.37-25.82-1.16l.05-.5c75.29,6.97,156.4-18.89,227.97-41.71,3.41-1.09,6.81-2.17,10.19-3.25,39.75-12.64,68.98-23.97,94.76-36.76,26.02-12.9,51.27-28.65,75.03-46.79,7.26-5.57,14.28-11.43,21.72-17.63,22.11-18.43,44.98-37.5,74.26-48.79,15.01-5.81,36.91-10.53,55.96-.04,8.07,4.44,14.95,9.34,21.05,14.97,6.93,6.4,13.32,13.12,19.5,19.62,8.83,9.29,17.97,18.9,28.67,27.52,27.65,22.26,74.14,31.64,127.52,25.75,4.84-.53,9.76-1.19,14.6-1.95,17.77-2.79,35.53-7.12,52.81-12.9,6.49-2.17,12.8-4.73,18.91-7.22,15.74-6.4,30.6-12.45,47.79-11.86,5.15.18,10.52.99,15.94,2.42,14.48,3.82,28.65,10.99,42.36,17.93,6.48,3.28,13.18,6.67,19.74,9.61,25.18,11.22,52.15,22.72,80.65,29.26,1.18.27,2.37.53,3.56.78,47.05,9.82,98.99,12.52,146.26,7.62l.05.5c-47.31,4.91-99.31,2.2-146.41-7.63-1.2-.25-2.39-.51-3.57-.78-28.54-6.55-55.53-18.06-80.74-29.29-6.57-2.94-13.28-6.34-19.77-9.62-13.68-6.93-27.83-14.09-42.26-17.89-5.39-1.42-10.72-2.23-15.83-2.41-17.07-.58-31.89,5.45-47.58,11.83-6.11,2.48-12.44,5.06-18.94,7.23-17.3,5.78-35.1,10.13-52.89,12.92-4.85.77-9.78,1.42-14.63,1.95-10.47,1.16-20.69,1.73-30.54,1.73-40.51,0-75.02-9.61-97.35-27.58-10.73-8.63-19.87-18.26-28.72-27.56-6.17-6.5-12.56-13.21-19.47-19.6-6.07-5.61-12.93-10.48-20.96-14.9-18.88-10.39-40.62-5.7-55.54.07-29.2,11.26-52.04,30.3-74.12,48.7-7.44,6.2-14.47,12.06-21.73,17.64-23.79,18.17-49.06,33.93-75.11,46.84-25.81,12.8-55.06,24.14-94.83,36.79-3.38,1.08-6.78,2.16-10.19,3.25-63.5,20.24-134.52,42.89-202.35,42.89Z"/>
      <path class="cls-26" d="M20.49,273.16c-6.79,0-13.56-.23-20.3-.7l.03-.5c65.02,4.6,132.42-14.29,197.61-32.57,13.63-3.82,26.51-7.43,39.46-10.86,36.45-9.65,66.58-18.53,95.15-30.49,26.13-10.94,51.83-24.83,76.39-41.29,8.21-5.54,16.17-11.44,24.6-17.7,22.05-16.36,44.85-33.27,73.03-43.84,21.15-7.96,40.4-8.54,55.68-1.69,9.03,4.05,16.02,7.94,21.98,12.24,7.43,5.35,14.32,11.03,20.99,16.52,9.17,7.55,18.65,15.35,29.5,22.28,28.53,18.2,73.66,24.59,127.09,17.97,4.78-.59,9.66-1.28,14.49-2.07,17.46-2.82,35.16-6.9,52.6-12.13,5.94-1.78,11.74-3.83,17.36-5.82,16.35-5.78,31.79-11.26,49.25-9.91,5.09.39,10.35,1.41,15.65,3.03,14.21,4.33,28.11,11.79,41.55,19,6.31,3.39,12.84,6.89,19.24,9.97,24.53,11.75,50.86,23.82,79.14,31.1,1.17.3,2.34.59,3.51.86,47.52,11.2,98.99,14.42,144.94,9.07l.06.5c-46.01,5.36-97.55,2.13-145.12-9.08-1.18-.28-2.35-.57-3.52-.87-28.33-7.29-54.67-19.38-79.23-31.14-6.41-3.09-12.94-6.59-19.26-9.98-13.42-7.2-27.3-14.64-41.46-18.96-5.27-1.61-10.49-2.62-15.54-3.01-17.35-1.33-32.74,4.11-49.04,9.88-5.62,1.99-11.44,4.05-17.39,5.83-17.47,5.23-35.19,9.32-52.67,12.14-4.84.79-9.72,1.48-14.51,2.07-53.55,6.63-98.8.22-127.42-18.05-10.87-6.94-20.37-14.75-29.55-22.31-6.66-5.48-13.55-11.15-20.97-16.5-5.93-4.28-12.89-8.15-21.89-12.19-15.15-6.8-34.28-6.21-55.3,1.7-28.12,10.54-50.89,27.44-72.91,43.77-8.43,6.26-16.4,12.17-24.62,17.71-24.58,16.48-50.31,30.39-76.47,41.34-28.6,11.97-58.75,20.86-95.22,30.52-12.95,3.43-25.83,7.04-39.46,10.86-58.46,16.39-118.72,33.29-177.47,33.29Z"/>
      <path class="cls-3" d="M14.23,269.51c-4.68,0-9.35-.11-14.01-.34l.03-.5c57.03,2.8,116.27-12.3,173.56-26.89,21.63-5.51,42.06-10.71,62.42-15.02,33.44-7.07,65.02-13.75,95.54-24.23,26.27-9.01,52.42-21.06,77.74-35.79,9.39-5.5,18.51-11.49,28.16-17.83,21.75-14.28,44.25-29.05,71.13-38.84,20.78-7.59,39.94-8.74,55.4-3.33,9,3.15,16.34,5.97,22.91,9.51,7.85,4.23,15.21,8.77,22.33,13.15,9.56,5.89,19.43,11.98,30.49,17.3,28.8,13.84,73.79,17.46,126.66,10.2,4.74-.64,9.58-1.38,14.37-2.18,17.04-2.83,34.67-6.65,52.4-11.36,5.24-1.39,10.4-2.95,15.39-4.46,17.12-5.18,33.29-10.07,51.13-7.91,5.01.61,10.18,1.83,15.36,3.63,13.94,4.86,27.57,12.59,40.76,20.07,6.15,3.49,12.5,7.09,18.73,10.31,22.85,11.73,49.58,24.92,77.63,32.95,1.15.32,2.3.65,3.46.95,47.77,12.6,98.78,16.34,143.63,10.53l.06.5c-44.92,5.82-96,2.08-143.82-10.54-1.16-.31-2.32-.63-3.47-.95-28.09-8.04-54.85-21.24-77.72-32.98-6.24-3.22-12.6-6.83-18.75-10.32-13.16-7.47-26.77-15.19-40.67-20.03-5.14-1.79-10.28-3.01-15.26-3.61-17.74-2.15-33.86,2.73-50.92,7.89-5,1.51-10.16,3.07-15.41,4.46-17.75,4.71-35.4,8.53-52.45,11.37-4.8.8-9.64,1.54-14.39,2.18-25.36,3.48-48.84,4.52-69.82,3.07-22.78-1.57-42.01-6.05-57.13-13.31-11.08-5.33-20.97-11.42-30.54-17.32-7.11-4.38-14.46-8.92-22.3-13.14-6.54-3.52-13.86-6.34-22.84-9.48-15.36-5.38-34.4-4.23-55.07,3.33-26.83,9.77-49.29,24.52-71.02,38.79-9.66,6.34-18.78,12.33-28.18,17.84-25.35,14.76-51.54,26.81-77.83,35.84-30.55,10.48-62.15,17.17-95.6,24.24-20.35,4.3-40.78,9.51-62.4,15.02-52.65,13.41-106.96,27.24-159.7,27.24Z"/>
      <path class="cls-33" d="M7.91,266c-2.56,0-5.11-.03-7.65-.1v-.5c50.56,1.36,103.11-11.14,153.91-23.22,28.12-6.69,54.68-13.01,80.99-17.17,4.48-.71,8.93-1.4,13.35-2.09,28.76-4.48,55.93-8.7,82.58-15.87,26.43-7.11,53.05-17.3,79.1-30.3,10.88-5.47,21.46-11.58,32.67-18.04,21.14-12.2,43.01-24.82,68.27-33.75,20.4-7.24,39.46-8.96,55.12-4.98l3.11.79c7.75,1.96,14.44,3.65,20.71,5.99,8.15,3.05,15.86,6.36,23.32,9.56,10.04,4.31,20.43,8.77,31.82,12.55,29.17,9.66,72.82,10.49,126.24,2.42,4.65-.7,9.44-1.47,14.26-2.3,16.28-2.79,33.84-6.35,52.2-10.59,4.36-1.01,8.68-2.1,12.87-3.16,18.09-4.59,35.18-8.92,53.57-5.85,4.95.83,10.02,2.25,15.07,4.24,13.68,5.38,27.04,13.4,39.96,21.15,5.98,3.59,12.16,7.29,18.22,10.65,22.25,12.23,48.32,26.01,76.13,34.8,1.13.35,2.26.7,3.41,1.03,47.15,13.8,99.02,18.17,142.32,11.98l.07.49c-43.36,6.2-95.31,1.83-142.53-11.99-1.15-.34-2.28-.68-3.42-1.04-27.85-8.8-53.95-22.59-76.22-34.83-6.07-3.36-12.26-7.07-18.24-10.66-12.91-7.74-26.25-15.75-39.89-21.12-5.01-1.97-10.05-3.39-14.97-4.21-18.29-3.05-35.33,1.27-53.36,5.85-4.19,1.06-8.51,2.16-12.88,3.16-18.37,4.24-35.94,7.81-52.23,10.6-4.82.83-9.61,1.6-14.27,2.3-53.49,8.09-97.23,7.24-126.47-2.44-11.42-3.78-21.81-8.24-31.86-12.56-7.45-3.2-15.16-6.51-23.3-9.55-6.24-2.34-12.92-4.02-20.66-5.98l-3.12-.79c-15.56-3.96-34.52-2.24-54.83,4.96-25.22,8.91-47.07,21.52-68.19,33.71-11.21,6.47-21.8,12.58-32.69,18.06-26.08,13.01-52.73,23.22-79.2,30.33-26.68,7.18-53.86,11.41-82.64,15.88-4.42.69-8.87,1.38-13.35,2.09-26.3,4.16-52.85,10.47-80.96,17.16-48.28,11.48-98.13,23.34-146.38,23.34Z"/>
      <path class="cls-21" d="M1.57,262.62c-.43,0-.85,0-1.28,0v-.5c.43,0,.86,0,1.28,0,44.77,0,91.22-10.57,136.16-20.79,32.02-7.28,65.12-14.81,96.36-18.08,7.82-.82,15.64-1.57,23.2-2.29,25.35-2.43,49.28-4.72,73.12-9.4,26.64-5.23,53.71-13.57,80.46-24.8,12.8-5.42,25.29-11.72,38.51-18.38,20.09-10.12,40.86-20.59,64.08-28.54,20.04-6.89,39-9.17,54.84-6.61,3.01.49,5.9.91,8.7,1.32,5.66.83,11,1.61,16.05,2.74,8.17,1.83,15.99,3.86,23.56,5.82,10.77,2.79,21.9,5.67,33.91,7.95,29.27,5.54,70.42,3.79,125.82-5.36,4.61-.76,9.36-1.57,14.14-2.41,17.42-3.07,35.29-6.53,52-9.82,3.23-.64,6.47-1.31,9.59-1.95,19.34-4.01,37.61-7.8,56.76-3.7,4.89,1.05,9.86,2.67,14.77,4.84,13.41,5.91,26.51,14.22,39.18,22.25,5.8,3.68,11.8,7.48,17.7,10.97,21.66,12.73,47.07,27.1,74.62,36.64,1.11.38,2.23.76,3.35,1.12,47.1,15.2,98.5,20.09,141,13.43l.08.49c-42.58,6.67-94.06,1.77-141.23-13.45-1.13-.36-2.25-.74-3.36-1.12-27.59-9.55-53.03-23.94-74.71-36.68-5.9-3.49-11.9-7.3-17.71-10.98-12.65-8.02-25.73-16.32-39.11-22.22-4.88-2.15-9.82-3.77-14.68-4.81-19.04-4.07-37.26-.3-56.55,3.7-3.13.65-6.36,1.32-9.6,1.95-16.71,3.29-34.58,6.76-52.01,9.82-4.77.85-9.53,1.66-14.14,2.42-55.45,9.16-96.66,10.92-125.99,5.36-12.02-2.28-23.16-5.16-33.94-7.95-7.57-1.96-15.39-3.98-23.55-5.81-5.03-1.13-10.36-1.91-16.01-2.73-2.8-.41-5.7-.83-8.71-1.32-15.76-2.55-34.64-.27-54.6,6.59-23.19,7.94-43.95,18.4-64.02,28.52-13.23,6.67-25.72,12.96-38.54,18.39-26.78,11.24-53.88,19.6-80.56,24.83-23.86,4.68-47.81,6.98-73.17,9.41-7.56.73-15.39,1.48-23.2,2.29-31.21,3.27-64.3,10.79-96.3,18.07-44.96,10.23-91.44,20.8-136.27,20.8Z"/>
      <path class="cls-10" d="M.32,259.33v-.5c40.58-.73,82.69-10.08,123.41-19.12,36.33-8.07,73.9-16.41,109.3-18.22,10.32-.53,20.61-.88,30.56-1.21,22.84-.77,44.41-1.5,66.15-4.22,26.89-3.35,54.41-9.85,81.82-19.3,15.39-5.36,30.43-11.94,46.36-18.91,18.35-8.03,37.33-16.33,57.88-23.14,19.67-6.54,38.53-9.4,54.56-8.25,4.43.32,8.61.48,12.66.63,4.54.17,8.82.34,13.01.7,7.47.65,14.73,1.4,21.76,2.13,12.7,1.32,24.7,2.56,38.04,3.29,35.1,1.93,81.02-5.18,125.4-13.15,4.65-.83,9.33-1.67,14.02-2.53,15.11-2.74,33.91-6.14,51.8-9.05,1.77-.29,3.53-.58,5.28-.87,20.99-3.47,40.81-6.74,60.98-1.44,4.83,1.27,9.71,3.1,14.48,5.44,13.15,6.44,25.99,15.05,38.41,23.36,5.62,3.77,11.44,7.67,17.16,11.27,21.08,13.22,45.84,28.19,73.11,38.49,1.09.41,2.19.81,3.3,1.21,46.96,16.6,97.87,22.02,139.69,14.89l.08.49c-41.9,7.16-92.9,1.72-139.94-14.91-1.11-.39-2.21-.8-3.31-1.21-27.31-10.32-52.11-25.3-73.21-38.53-5.73-3.61-11.54-7.51-17.17-11.28-12.4-8.31-25.23-16.9-38.35-23.33-4.75-2.33-9.59-4.15-14.39-5.41-20.07-5.28-39.84-2.01-60.77,1.45-1.75.29-3.51.58-5.28.87-17.88,2.91-36.68,6.31-51.79,9.05-4.7.86-9.37,1.7-14.02,2.53-44.41,7.97-90.35,15.08-125.51,13.16-13.35-.73-25.36-1.98-38.06-3.29-7.02-.73-14.28-1.48-21.75-2.13-4.18-.36-8.46-.53-12.99-.7-4.05-.15-8.24-.32-12.67-.63-15.96-1.13-34.76,1.71-54.37,8.23-20.53,6.8-39.49,15.1-57.84,23.12-15.94,6.97-31,13.56-46.4,18.92-27.44,9.47-55,15.97-81.92,19.33-21.76,2.71-43.35,3.45-66.2,4.22-9.95.34-20.23.69-30.55,1.21-35.35,1.8-72.9,10.14-109.21,18.21-40.75,9.05-82.88,18.41-123.52,19.14Z"/>
      <path class="cls-23" d="M.35,256.05l-.02-.5c36.27-1.48,73.84-9.86,110.17-17.97,40.39-9.01,82.15-18.31,121.46-17.85,10.57.13,21.12.44,31.31.74,22.65.66,44.05,1.29,65.79.1,27.17-1.48,55.15-6.13,83.17-13.8,19-5.26,37.65-12.32,57.39-19.8,15.55-5.89,31.63-11.98,48.51-17.38,18.2-5.85,36.83-8.21,54.26-9.89,7.7-.74,14.77-.98,21.62-1.21,1.68-.06,3.34-.11,4.99-.18,3.82-.15,7.58-.28,11.3-.42,17.05-.62,33.16-1.21,50.82-2.51,29.43-2.16,65.73-9.3,104.16-16.87,6.85-1.35,13.79-2.71,20.81-4.08,4.61-.89,9.24-1.77,13.9-2.65,19.19-3.58,36.07-6.28,51.6-8.28,22.93-2.94,44.58-5.72,66.17,1.05,4.78,1.5,9.55,3.53,14.19,6.05,12.9,6.99,25.48,15.89,37.65,24.5,5.44,3.85,11.07,7.83,16.61,11.56,25.43,17.01,47.33,30.38,71.61,40.33,1.07.44,2.16.87,3.25,1.29,46.04,17.75,97.77,23.86,138.37,16.34l.09.49c-40.69,7.54-92.52,1.42-138.65-16.36-1.09-.42-2.18-.86-3.26-1.29-24.32-9.97-46.25-23.35-71.7-40.38-5.54-3.73-11.17-7.71-16.62-11.56-12.16-8.6-24.73-17.5-37.6-24.47-4.61-2.5-9.35-4.52-14.1-6.01-21.48-6.74-43.09-3.97-65.96-1.04-15.52,1.99-32.39,4.7-51.57,8.28-4.66.87-9.3,1.76-13.9,2.64-7.02,1.36-13.96,2.73-20.81,4.08-38.45,7.57-74.76,14.71-104.22,16.87-17.67,1.3-33.78,1.89-50.84,2.51-3.72.14-7.47.27-11.29.42-1.65.06-3.32.12-5,.18-6.84.23-13.91.47-21.59,1.21-17.4,1.68-36,4.03-54.16,9.87-16.86,5.4-32.93,11.48-48.48,17.37-19.75,7.48-38.41,14.54-57.43,19.81-28.05,7.69-56.07,12.34-83.28,13.82-21.76,1.19-43.17.56-65.83-.1-10.19-.3-20.73-.61-31.3-.74-39.28-.49-80.98,8.83-121.34,17.84-36.36,8.11-73.95,16.5-110.26,17.98Z"/>
      <path class="cls-7" d="M.38,252.77l-.03-.5c33.17-2.11,67.48-9.75,100.67-17.13,43.18-9.61,87.82-19.54,129.87-17.16,13.73.78,27.36,2.05,40.54,3.28,19.55,1.83,38.01,3.55,56.96,3.83,27.5.39,55.94-2.4,84.53-8.31,24.42-5.1,48.47-13.04,73.94-21.45,10.89-3.6,22.15-7.32,33.61-10.86,18.91-5.86,37.58-9.85,54-11.52,6.95-.71,13.44-1.79,19.72-2.84,2.68-.45,5.22-.87,7.79-1.27,21.78-3.35,42.26-6.93,64.44-11.27,17.88-3.49,37.72-8.34,58.72-13.48,21.03-5.14,42.77-10.45,65.83-15.26,4.74-.98,9.39-1.91,13.79-2.76,18.11-3.47,35.4-6,51.39-7.51,22.65-2.14,44.75-3.41,66.08,4.41,4.72,1.73,9.39,3.96,13.9,6.65,12.65,7.54,24.98,16.74,36.9,25.65,5.26,3.93,10.7,7.99,16.06,11.83,24.72,17.62,46.11,31.54,70.1,42.18,1.06.47,2.12.93,3.19,1.38,45.75,19.16,96.98,25.81,137.06,17.79l.1.49c-40.16,8.03-91.51,1.37-137.35-17.82-1.08-.45-2.14-.91-3.2-1.38-24.04-10.65-45.44-24.59-70.19-42.23-5.36-3.84-10.8-7.9-16.07-11.83-11.91-8.9-24.23-18.1-36.85-25.62-4.48-2.67-9.13-4.89-13.81-6.61-21.23-7.78-43.27-6.52-65.86-4.38-15.98,1.51-33.26,4.04-51.35,7.5-4.4.85-9.04,1.77-13.78,2.76-23.05,4.81-44.79,10.12-65.81,15.26-21.01,5.13-40.85,9.98-58.74,13.48-22.19,4.34-42.67,7.92-64.46,11.27-2.57.4-5.1.82-7.79,1.27-6.29,1.05-12.79,2.13-19.76,2.84-16.39,1.67-35.03,5.65-53.9,11.51-11.45,3.54-22.72,7.26-33.61,10.85-25.48,8.41-49.55,16.36-73.99,21.47-28.63,5.91-57.09,8.72-84.64,8.32-18.96-.27-37.44-2-56.99-3.83-13.17-1.23-26.8-2.51-40.52-3.28-42-2.38-86.6,7.55-129.74,17.15-33.2,7.39-67.53,15.03-100.75,17.14Z"/>
      <path class="cls-13" d="M.42,249.49l-.04-.5c30.11-2.61,61.21-9.67,91.28-16.51,45.92-10.43,93.41-21.22,138.17-16.27,14.88,1.65,29.64,3.98,43.92,6.23,17.66,2.79,35.93,5.67,53.96,7.15,27.84,2.28,56.74,1.34,85.89-2.81,33.38-4.81,66.4-14.67,101.37-25.1l7.83-2.34c18.45-5.51,37.03-10.06,53.72-13.16,8.57-1.59,16.6-3.71,24.37-5.76,1.36-.36,2.72-.72,4.07-1.07,23.68-6.18,46.57-13.32,66.77-19.61,8.46-2.64,17.1-5.44,26.26-8.4,29.27-9.48,62.45-20.21,97.86-28.13,4.6-1.02,9.2-1.99,13.67-2.88,17.68-3.48,34.91-5.75,51.19-6.74,21.55-1.3,44.46-1.27,65.99,7.77,4.71,1.99,9.28,4.43,13.6,7.25,12.41,8.1,24.49,17.62,36.18,26.84,5.06,3.99,10.3,8.12,15.47,12.06,20.79,15.78,43.49,32.03,68.6,44.02,1.04.49,2.09.98,3.14,1.46,21.01,9.47,44.09,16.37,66.74,19.94,25.18,3.97,48.39,3.74,69-.7l.1.49c-20.67,4.45-43.94,4.68-69.18.7-22.7-3.58-45.82-10.49-66.87-19.98-1.06-.48-2.11-.97-3.15-1.47-25.15-12.01-47.87-28.28-68.69-44.08-5.17-3.94-10.41-8.07-15.48-12.06-11.68-9.21-23.75-18.73-36.15-26.81-4.29-2.8-8.85-5.23-13.53-7.21-21.44-9-44.28-9.04-65.77-7.73-16.27.99-33.47,3.25-51.13,6.73-4.47.89-9.07,1.85-13.66,2.88-35.39,7.92-68.56,18.65-97.82,28.12-9.16,2.96-17.8,5.76-26.27,8.4-20.2,6.3-43.09,13.44-66.79,19.62-1.35.35-2.71.71-4.07,1.07-7.78,2.05-15.82,4.17-24.41,5.76-16.67,3.1-35.23,7.64-53.67,13.15l-7.83,2.34c-34.98,10.44-68.03,20.3-101.44,25.12-29.19,4.15-58.12,5.1-86,2.81-18.05-1.48-36.33-4.36-54-7.15-14.27-2.25-29.03-4.58-43.9-6.23-44.68-4.94-92.13,5.83-138.01,16.26-30.09,6.84-61.2,13.9-91.35,16.52Z"/>
      <path class="cls-25" d="M.45,246.21l-.06-.5c27.38-3.01,55.61-9.62,82.91-16.01,48.32-11.31,98.28-23.01,145.46-15.23,15.78,2.6,31.44,6.08,46.58,9.44,16.89,3.75,34.35,7.63,51.69,10.2,28.22,4.19,57.57,5.09,87.24,2.69,39.57-3.26,78.24-13.24,110.85-22.57,17.22-4.94,35.2-9.92,53.44-14.79,10.27-2.74,19.75-6.08,29.37-9.54,20.86-7.51,40.31-15.76,60.91-24.49,2.72-1.15,5.44-2.31,8.18-3.47l5.4-2.29c35-14.83,74.67-31.63,118.29-42.05,4.54-1.08,9.1-2.09,13.55-2.99,17.12-3.47,34.76-5.53,50.99-5.97,27.51-.74,48.45,2.8,65.9,11.13,4.65,2.23,9.13,4.88,13.31,7.86,12.18,8.68,24.04,18.55,35.51,28.08,4.85,4.04,9.88,8.21,14.83,12.23,20.2,16.31,42.31,33.15,67.09,45.87,1.02.52,2.05,1.04,3.09,1.55,20.63,10.05,43.45,17.4,66,21.27,24.74,4.25,48.41,4.05,68.43-.58l.11.49c-20.08,4.64-43.81,4.84-68.62.58-22.6-3.88-45.47-11.25-66.14-21.32-1.04-.51-2.07-1.03-3.1-1.55-24.83-12.74-46.96-29.6-67.18-45.93-4.96-4.02-9.98-8.19-14.84-12.23-11.46-9.53-23.31-19.39-35.48-28.06-4.16-2.96-8.61-5.59-13.24-7.81-17.38-8.29-38.24-11.81-65.67-11.08-16.21.44-33.81,2.5-50.91,5.96-4.45.9-9.01,1.91-13.54,2.99-43.57,10.41-83.22,27.2-118.21,42.02l-5.4,2.29c-2.74,1.16-5.46,2.31-8.18,3.46-20.6,8.74-40.06,16.99-60.93,24.5-9.63,3.47-19.13,6.81-29.42,9.55-18.23,4.87-36.21,9.85-53.43,14.79-32.64,9.34-71.34,19.33-110.95,22.59-29.71,2.41-59.1,1.5-87.36-2.69-17.36-2.58-34.83-6.46-51.72-10.21-15.14-3.36-30.79-6.84-46.56-9.44-47.08-7.76-96.99,3.93-145.26,15.23-27.31,6.39-55.55,13-82.96,16.02Z"/>
      <path class="cls-28" d="M406.06,247.41c-27.06,0-53.87-2.78-79.81-8.3-16.87-3.62-33.76-8.45-50.09-13.11-15.8-4.52-32.14-9.18-48.57-12.8-49.24-10.72-101.31,1.92-151.66,14.14-24.82,6.03-50.48,12.25-75.44,15.59l-.07-.5c24.93-3.33,50.58-9.55,75.39-15.58,50.41-12.23,102.54-24.89,151.88-14.14,16.45,3.62,32.8,8.29,48.6,12.81,16.33,4.66,33.21,9.49,50.06,13.11,28.75,6.11,58.56,8.87,88.6,8.18,35.32-.82,72.12-6.61,112.51-17.7,18.64-5.12,36.52-10.65,53.16-16.42,9.32-3.23,18.95-7.13,30.31-12.26,21.43-9.68,42.3-20.8,62.5-31.56,2.97-1.58,5.94-3.16,8.91-4.74,33.91-17.88,76.11-40.14,123.26-52.13,4.47-1.14,8.99-2.18,13.44-3.11,16.86-3.51,34.43-5.31,50.79-5.2,26.48.18,48.01,4.92,65.81,14.48,4.59,2.48,8.97,5.32,13.02,8.46,11.98,9.29,23.64,19.52,34.9,29.41,4.62,4.06,9.41,8.26,14.13,12.32,19.62,16.84,41.14,34.28,65.59,47.72,1,.55,2.01,1.09,3.04,1.63,34.47,18.09,87.54,33.41,133.11,22.15l.12.49c-45.71,11.29-98.92-4.06-133.47-22.19-1.03-.54-2.04-1.09-3.04-1.64-24.48-13.46-46.03-30.91-65.67-47.77-4.73-4.07-9.51-8.26-14.14-12.32-11.26-9.89-22.91-20.11-34.88-29.39-4.03-3.12-8.38-5.95-12.95-8.42-17.73-9.52-39.18-14.24-65.58-14.42-16.31-.11-33.85,1.68-50.68,5.19-4.44.93-8.96,1.97-13.42,3.1-47.08,11.98-89.26,34.22-123.14,52.09-2.98,1.58-5.95,3.16-8.91,4.74-20.2,10.76-41.08,21.88-62.53,31.57-11.37,5.14-21.01,9.04-30.35,12.28-16.65,5.77-34.55,11.3-53.19,16.43-40.43,11.1-77.27,16.9-112.63,17.72-2.97.07-5.94.1-8.91.1Z"/>
      <path class="cls-24" d="M428.4,257.58c-34.97,0-69.41-4.66-102.86-13.95-16.49-4.58-32.91-10.33-48.8-15.89-16.35-5.73-33.26-11.65-50.25-16.29-51.15-13.98-105.12-.28-157.32,12.97-22.58,5.73-45.92,11.66-68.66,15.23l-.08-.49c22.72-3.57,46.05-9.5,68.61-15.23,52.26-13.27,106.29-26.99,157.57-12.97,17,4.65,33.92,10.57,50.28,16.3,15.88,5.56,32.29,11.31,48.77,15.88,47.51,13.19,97.03,17.04,147.2,11.44,50.17-5.6,97.62-20.28,141.05-43.63,21.6-11.62,42.6-24.93,62.91-37.8,45.15-28.62,91.84-58.21,146.96-70,22.74-4.87,46.02-5.89,67.34-2.96,24.97,3.43,45.73,11.99,61.7,25.43,11.82,9.95,23.29,20.58,34.39,30.86,23.77,22.01,48.35,44.78,77.42,61.85,52.77,31,105.59,33.01,134.78,25.32l.13.48c-20.03,5.28-44.01,5.27-69.34-.04-22.73-4.76-46.11-13.76-65.82-25.33-29.11-17.1-53.72-39.89-77.51-61.92-11.09-10.27-22.57-20.9-34.38-30.84-15.89-13.38-36.57-21.9-61.44-25.32-21.26-2.92-44.49-1.9-67.17,2.95-55.03,11.78-101.68,41.34-146.8,69.94-20.32,12.88-41.32,26.19-62.95,37.82-43.48,23.38-91,38.08-141.23,43.68-14.91,1.67-29.77,2.5-44.53,2.5Z"/>
    </g>
  </g>
</svg>